<?xml version="1.0" standalone="no"?><!DOCTYPE svg PUBLIC "-//W3C//DTD SVG 1.1//EN" "http://www.w3.org/Graphics/SVG/1.1/DTD/svg11.dtd"><svg t="1550296838241" class="icon" style="" viewBox="0 0 1024 1024" version="1.1" xmlns="http://www.w3.org/2000/svg" p-id="10805" xmlns:xlink="http://www.w3.org/1999/xlink" width="200" height="200"><defs><style type="text/css"></style></defs><path d="M789.333333 0h-554.666666a21.333333 21.333333 0 0 0-21.333334 21.333333v935.637334c0 22.442667 11.306667 41.770667 29.44 50.56 17.237333 8.277333 37.333333 5.418667 55.210667-9.130667l211.797333-208.853333 215.424 208.896a53.461333 53.461333 0 0 0 34.816 13.653333c7.082667 0 14.165333-1.578667 20.821334-4.778667 18.389333-8.789333 29.824-28.117333 29.824-50.432V21.333333a21.333333 21.333333 0 0 0-21.333334-21.333333zM768 956.885333c0 6.869333-2.944 10.709333-5.504 11.946667-2.944 1.365333-6.101333-0.170667-8.405333-1.877333l-229.546667-222.634667a21.333333 21.333333 0 0 0-29.824 0.128L269.653333 966.528c-1.92 1.450667-5.589333 3.754667-8.405333 2.474667-2.602667-1.28-5.248-5.461333-5.248-12.074667V42.666667h512v914.218666z" p-id="10806"></path></svg>